<svg width="50" height="50" viewBox="0 0 50 50" fill="none" xmlns="http://www.w3.org/2000/svg">
<g id="Group 48096299">
<path id="Subtract" fill-rule="evenodd" clip-rule="evenodd" d="M25 50C38.8071 50 50 38.8071 50 25C50 11.1929 38.8071 0 25 0C11.1929 0 0 11.1929 0 25C0 38.8071 11.1929 50 25 50ZM11 19.4381C11 16.9866 12.98 15 15.4224 15H34.5776C37.02 15 39 16.9866 39 19.4381V29.9652C39 32.4167 37.02 34.4033 34.5776 34.4033H27.9792L25.7275 38.0695C25.7275 38.0695 25.7079 38.1126 25.6517 38.1792C25.5198 38.4026 25.2795 38.5541 25 38.5541C24.7205 38.5541 24.4776 38.4012 24.3456 38.1753C24.2973 38.1139 24.2725 38.0708 24.2725 38.0708L22.0208 34.4046H15.4224C12.98 34.4046 11 32.418 11 29.9665V19.4381Z" fill="#D9D9D9" fill-opacity="0.3"/>
<g id="Group">
<path id="Vector" d="M17.2184 22.7156C17.2184 22.7156 16.4543 22.7156 15.7608 23.3908V20.6729H14.0459V27.8146H15.7778V27.2556C15.7778 27.2556 16.1866 27.9935 17.2171 27.9935C17.2171 27.9935 19.6334 27.9047 19.6334 25.3278C19.6334 25.3278 19.5445 22.7156 17.2171 22.7156H17.2184ZM16.8409 26.485C16.2323 26.485 15.7386 25.9913 15.7386 25.3826C15.7386 24.774 16.2323 24.2816 16.8409 24.2816C17.4496 24.2816 17.942 24.7753 17.942 25.3826C17.942 25.99 17.4483 26.485 16.8409 26.485Z" fill="#414141"/>
<path id="Vector_2" d="M20.1848 20.5127V22.1649C20.1848 22.1649 20.9672 22.1296 20.9672 23.5859V27.8138H22.6194V23.1954C22.6194 23.1954 22.6899 20.5127 20.1848 20.5127Z" fill="#414141"/>
<path id="Vector_3" d="M26.6598 22.7383C26.6598 22.7383 23.8269 22.7383 23.8269 25.3831C23.8269 25.3831 23.7355 27.9927 26.6598 27.9927C26.6598 27.9927 29.558 27.9888 29.558 25.3831C29.558 25.3831 29.6521 22.7383 26.6598 22.7383ZM26.6598 26.4855C26.0512 26.4855 25.5575 25.9918 25.5575 25.3831C25.5575 24.7745 26.0512 24.2821 26.6598 24.2821C27.2685 24.2821 27.7609 24.7758 27.7609 25.3831C27.7609 25.9905 27.2672 26.4855 26.6598 26.4855Z" fill="#414141"/>
<path id="Vector_4" d="M34.2875 22.9115V23.3908C34.2875 23.3908 33.7951 22.7378 32.8495 22.7378C32.8495 22.7378 30.4241 22.6359 30.4241 25.3643C30.4241 25.3643 30.3966 27.9073 32.7829 27.9073C32.7829 27.9073 33.7559 27.9465 34.2875 27.2543V27.6539C34.2875 27.6539 34.4076 28.9065 33.1956 28.9065H32.7829V30.4255H33.449C33.449 30.4255 35.954 30.4529 35.954 27.748V22.9115H34.2888H34.2875ZM33.2635 26.485C32.6549 26.485 32.1625 25.9913 32.1625 25.3826C32.1625 24.774 32.6549 24.2816 33.2635 24.2816C33.8721 24.2816 34.3645 24.7753 34.3645 25.3826C34.3645 25.99 33.8708 26.485 33.2635 26.485Z" fill="#414141"/>
</g>
</g>
</svg>
