<svg width="45" height="50" viewBox="0 0 45 50" fill="none" xmlns="http://www.w3.org/2000/svg">
<g id="Group">
<path id="Vector" fill-rule="evenodd" clip-rule="evenodd" d="M21.8553 25.2353L7.0487 33.1833L21.8648 40.9303L37.0041 33.1691L21.8569 25.2338L21.8553 25.2353ZM21.8474 23.6021L3.96762 33.2007L21.8585 42.5556L40.139 33.1849L21.8474 23.6021Z" fill="url(#paint0_linear_102_15444)"/>
<g id="Group 48096276">
<path id="Vector_2" fill-rule="evenodd" clip-rule="evenodd" d="M21.7798 0L0 12.1831V38.5893L21.8099 50L44.0888 38.5798L44.1078 38.5893V12.1831L21.7814 0H21.7798Z" fill="url(#paint1_linear_102_15444)"/>
<path id="Vector_3" fill-rule="evenodd" clip-rule="evenodd" d="M21.8603 25.2358L7.05371 33.1838L21.8698 40.9307L37.0091 33.1696L21.8619 25.2342L21.8603 25.2358ZM21.8524 23.6025L3.97263 33.2012L21.8635 42.5561L40.1441 33.1854L21.8524 23.6025Z" fill="url(#paint2_linear_102_15444)"/>
<path id="Vector_4" fill-rule="evenodd" clip-rule="evenodd" d="M21.8603 18.2148L7.05371 26.1628L21.8698 33.9097L37.0091 26.1485L21.8619 18.2132L21.8603 18.2148ZM21.8524 16.5815L3.97263 26.1802L21.8635 35.5351L40.1441 26.1644L21.8524 16.5815Z" fill="url(#paint3_linear_102_15444)"/>
<path id="Vector_5" d="M40.1441 19.1473L21.8524 9.56445L3.97263 19.1631L21.8635 28.518L40.1441 19.1473Z" fill="#EE3536"/>
</g>
</g>
<defs>
<linearGradient id="paint0_linear_102_15444" x1="0.0216185" y1="40.9508" x2="0.179734" y2="23.7524" gradientUnits="userSpaceOnUse">
<stop stop-color="#680E0E"/>
<stop offset="1" stop-color="#2F1010"/>
</linearGradient>
<linearGradient id="paint1_linear_102_15444" x1="22.0539" y1="0" x2="22.0539" y2="50" gradientUnits="userSpaceOnUse">
<stop offset="0.49" stop-color="white"/>
<stop offset="1" stop-color="#D1D3D4"/>
</linearGradient>
<linearGradient id="paint2_linear_102_15444" x1="4.02015" y1="31.6692" x2="36.8297" y2="34.2695" gradientUnits="userSpaceOnUse">
<stop stop-color="#D32027"/>
<stop offset="0.61" stop-color="#EE797A"/>
</linearGradient>
<linearGradient id="paint3_linear_102_15444" x1="4.02015" y1="24.6482" x2="36.8297" y2="27.2485" gradientUnits="userSpaceOnUse">
<stop stop-color="#D32027"/>
<stop offset="1" stop-color="#EE797A"/>
</linearGradient>
</defs>
</svg>
