<svg width="101" height="31" viewBox="0 0 101 31" fill="none" xmlns="http://www.w3.org/2000/svg">
<g id="Group">
<g id="Group_2">
<g id="Group_3">
<path id="Vector" fill-rule="evenodd" clip-rule="evenodd" d="M35.8379 10.2038L41.0283 5.24805V10.2038H35.8379ZM55.2631 10.1734V10.2038H41.0283V5.24805H51.2684L55.2631 10.1734Z" fill="white"/>
<path id="Vector_2" d="M50.8189 25.7004L55.2631 20.9764V20.947L41.0283 20.9355V25.6995H50.8189V25.7004Z" fill="#DF4546"/>
<path id="Vector_3" d="M50.8189 25.7004L55.2631 20.9764V20.947L41.0283 20.9355V25.6995H50.8189V25.7004Z" fill="#DF4546"/>
<path id="Vector_4" opacity="0.9" d="M35.8379 10.2051H41.0283V25.701L35.8379 20.9446V10.2051Z" fill="#E6E7E8"/>
</g>
<g id="Group_4">
<path id="Vector_5" d="M100.263 5.28129L93.2952 5.24805L89.6455 10.4716L93.0852 15.3932L100.263 5.28034V5.28129Z" fill="#DF4546"/>
<path id="Vector_6" d="M100.501 25.7001H93.5328L89.6455 20.281L93.0852 15.3594L100.501 25.7001Z" fill="#DF4546"/>
<path id="Vector_7" d="M85.9931 5.25049L79.0254 5.28373L86.2032 15.3966L89.6428 10.475L85.9931 5.25144V5.25049Z" fill="#E6E7E8"/>
<path id="Vector_8" d="M89.6428 10.4727L86.2031 15.3942L89.6428 20.2408L93.0825 15.3942L89.6428 10.4727Z" fill="url(#paint0_linear_96_9554)"/>
<path id="Vector_9" fill-rule="evenodd" clip-rule="evenodd" d="M86.2032 15.3967L89.6428 10.4751L93.0825 15.3967L89.6428 20.2432L85.7698 25.7023H79.0254V25.669L86.2032 15.3957V15.3967Z" fill="white"/>
</g>
<g id="Group_5">
<path id="Vector_10" d="M78.8271 10.2556L75.109 5.25049H65.5703L70.5288 10.2556H78.8271Z" fill="#DF4546"/>
<path id="Vector_11" d="M55.4727 5.25049L59.5054 10.2556H65.5778V5.25049H55.4727Z" fill="#E6E7E8"/>
<path id="Vector_12" fill-rule="evenodd" clip-rule="evenodd" d="M70.7697 10.2532L65.5812 5.24805V10.2532L65.5508 25.6997H70.7706V10.2532H70.7697Z" fill="white"/>
</g>
</g>
<path id="Vector_13" fill-rule="evenodd" clip-rule="evenodd" d="M13.6152 15.7622L4.73143 20.5309L13.6209 25.179L22.7044 20.5223L13.6162 15.7612L13.6152 15.7622ZM13.6105 14.7822L2.88281 20.5413L13.6171 26.1542L24.5853 20.5318L13.6105 14.7822Z" fill="url(#paint1_linear_96_9554)"/>
<g id="Group 48096276">
<path id="Vector_14" fill-rule="evenodd" clip-rule="evenodd" d="M13.5677 0.621094L0.5 7.93082V23.7743L13.5857 30.6206L26.9528 23.7686L26.9642 23.7743V7.93082L13.5686 0.621094H13.5677Z" fill="url(#paint2_linear_96_9554)"/>
<path id="Vector_15" fill-rule="evenodd" clip-rule="evenodd" d="M13.6152 15.7622L4.73143 20.5309L13.6209 25.179L22.7044 20.5223L13.6162 15.7612L13.6152 15.7622ZM13.6105 14.7822L2.88281 20.5413L13.6171 26.1542L24.5853 20.5318L13.6105 14.7822Z" fill="url(#paint3_linear_96_9554)"/>
<path id="Vector_16" fill-rule="evenodd" clip-rule="evenodd" d="M13.6152 11.5498L4.73143 16.3185L13.6209 20.9666L22.7044 16.3099L13.6162 11.5488L13.6152 11.5498ZM13.6105 10.5698L2.88281 16.3289L13.6171 21.9418L24.5853 16.3194L13.6105 10.5698Z" fill="url(#paint4_linear_96_9554)"/>
<path id="Vector_17" d="M24.5853 12.109L13.6105 6.35938L2.88281 12.1185L13.6171 17.7313L24.5853 12.109Z" fill="#EE3536"/>
</g>
</g>
<defs>
<linearGradient id="paint0_linear_96_9554" x1="88.9528" y1="13.3261" x2="91.9113" y2="22.2099" gradientUnits="userSpaceOnUse">
<stop/>
<stop offset="1" stop-color="#59595B"/>
</linearGradient>
<linearGradient id="paint1_linear_96_9554" x1="0.515252" y1="25.1913" x2="0.61012" y2="14.8724" gradientUnits="userSpaceOnUse">
<stop stop-color="#680E0E"/>
<stop offset="1" stop-color="#2F1010"/>
</linearGradient>
<linearGradient id="paint2_linear_96_9554" x1="13.7321" y1="0.621094" x2="13.7321" y2="30.6206" gradientUnits="userSpaceOnUse">
<stop offset="0.49" stop-color="white"/>
<stop offset="1" stop-color="#D1D3D4"/>
</linearGradient>
<linearGradient id="paint3_linear_96_9554" x1="2.91133" y1="19.6221" x2="22.5967" y2="21.1823" gradientUnits="userSpaceOnUse">
<stop stop-color="#D32027"/>
<stop offset="0.61" stop-color="#EE797A"/>
</linearGradient>
<linearGradient id="paint4_linear_96_9554" x1="2.91133" y1="15.4097" x2="22.5967" y2="16.9699" gradientUnits="userSpaceOnUse">
<stop stop-color="#D32027"/>
<stop offset="1" stop-color="#EE797A"/>
</linearGradient>
</defs>
</svg>
