<svg width="170" height="30" viewBox="0 0 170 30" fill="none" xmlns="http://www.w3.org/2000/svg">
<g id="_&#235;&#160;&#136;&#236;&#157;&#180;&#236;&#150;&#180;_1" clip-path="url(#clip0_96_6596)">
<path id="Vector" d="M167.019 7.61339H153.938V2.25064H159.344V6.75947H161.613V0H152.701C152.132 0 151.67 0.457906 151.67 1.02295V9.86403H167.019V15.2272H161.613V10.7183H159.344V17.4778H168.257C168.826 17.4778 169.287 17.0199 169.287 16.4553V7.61418H167.019L167.019 7.61339Z" fill="#00A1E9"/>
<path id="Vector_2" d="M41.8605 29.6525H46.0152V15.0582L52.7834 28.4462C52.7834 28.4462 53.2714 29.5802 54.5926 29.6525H57.9765C59.9768 29.556 59.8924 27.6161 59.8924 27.6161V10.8069H55.7377V25.3976L48.9695 12.01C48.9695 12.01 48.4919 10.9041 47.2088 10.8069H43.7164C41.7245 10.9354 41.8605 12.8401 41.8605 12.8401V29.6529V29.6525Z" fill="white"/>
<path id="Vector_3" d="M2.07738 21.0414C4.25052 21.389 12.1431 22.6417 12.1431 22.6417V26.1978H0.434222V29.6535H14.2239C14.2239 29.6535 16.2982 29.7646 16.2982 27.5965V21.4822C16.2982 21.4822 16.325 19.7534 14.2239 19.4268C12.1227 19.1002 4.15573 17.8015 4.15573 17.8015V14.2629H15.8786V10.8071H2.07498C2.07498 10.8071 0.000632597 10.7377 0.000632597 12.8645V18.9816C0.000632597 18.9816 -0.095365 20.6934 2.07778 21.0414H2.07738Z" fill="white"/>
<path id="Vector_4" d="M73.7167 10.8069H64.0906V29.639H73.7167C82.3205 29.639 81.8109 20.2229 81.8109 20.2229C81.8109 20.2229 82.3205 10.8069 73.7167 10.8069ZM73.7115 26.1832H68.2313V14.2622H73.7115C77.9822 14.2622 77.6566 20.2225 77.6566 20.2225C77.6566 20.2225 77.8842 26.1828 73.7115 26.1828V26.1832Z" fill="white"/>
<path id="Vector_5" d="M86.9307 21.0401C89.1018 21.3877 96.988 22.6404 96.988 22.6404V26.1806H85.2727V29.649H99.0636C99.0636 29.649 101.136 29.7601 101.136 27.592V21.4777C101.136 21.4777 101.163 19.7489 99.0636 19.4223C96.9644 19.0958 89.0034 17.797 89.0034 17.797V14.2739H100.719V10.8054H86.9279C86.9279 10.8054 84.8551 10.7356 84.8551 12.8624V18.9795C84.8551 18.9795 84.7591 20.6913 86.9303 21.0393L86.9307 21.0401Z" fill="white"/>
<path id="Vector_6" d="M31.3909 10.8069H26.5034C24.8291 10.8069 24.4311 12.3484 24.4311 12.3484L18.9884 29.6525H23.5231L25.2234 23.6802H32.6193L34.32 29.6525H38.8547C38.8547 29.6525 33.9124 13.9523 33.412 12.3484C32.9653 10.9168 31.6653 10.8128 31.3909 10.8069ZM26.2114 20.2122L27.6594 15.1264C27.6594 15.1264 27.9542 14.2301 28.9214 14.1785C29.8889 14.1269 30.1833 15.1264 30.1833 15.1264L31.6313 20.2122H26.2106H26.2114Z" fill="white"/>
<path id="Vector_7" d="M112.386 26.5439V10.8069H108.68V29.6541H112.386L119.199 29.6525V26.7134V26.5439H112.386Z" fill="white"/>
<path id="Vector_8" d="M133.392 15.2633V16.8295C133.392 17.3616 133.08 17.1243 132.932 16.9823C132.91 16.9581 132.886 16.9342 132.863 16.9108C132.859 16.9061 132.856 16.9033 132.856 16.9033V16.9041C131.713 15.749 129.895 15.1935 128.316 15.1713L127.899 15.1725C127.866 15.1721 127.834 15.1713 127.802 15.1713C123.511 15.1713 120.385 18.4135 120.385 22.6422C120.385 26.8709 123.454 30.0004 127.631 30.0004C127.72 30.0004 127.81 29.9989 127.899 29.9961H128.316V29.9949C129.562 29.956 130.796 29.6421 131.857 28.9842C132.304 28.7108 132.606 28.468 132.875 28.1565C132.97 28.0541 133.391 27.6323 133.391 28.251V29.654H136.704V15.2629H133.391L133.392 15.2633ZM128.298 27.1486H127.918V27.1498C127.915 27.1498 127.911 27.1498 127.908 27.1498C125.427 27.1498 123.488 25.0476 123.488 22.6116C123.488 20.1757 125.349 18.0223 127.908 18.0223C127.911 18.0223 127.915 18.0223 127.918 18.0223V18.0211H128.298C130.851 18.027 132.732 20.1523 132.732 22.6359C132.732 25.1194 130.8 27.1423 128.298 27.1483V27.1486Z" fill="white"/>
<path id="Vector_9" d="M148.626 15.1709C148.594 15.1709 148.561 15.1717 148.529 15.1721L148.112 15.1709C146.533 15.1927 144.715 15.7482 143.572 16.9037V16.9029C143.572 16.9029 143.57 16.9057 143.565 16.9104C143.542 16.9343 143.519 16.9577 143.496 16.9819C143.349 17.1239 143.037 17.3612 143.037 16.8291V10.8069H139.724V29.6541H143.037V28.251C143.037 27.632 143.459 28.0542 143.553 28.1565C143.822 28.468 144.124 28.7109 144.571 28.9843C145.632 29.6421 146.867 29.9556 148.112 29.9949V29.9961H148.529C148.619 29.9989 148.708 30.0005 148.797 30.0005C152.974 30.0005 156.044 26.73 156.044 22.6422C156.044 18.5544 152.918 15.1713 148.626 15.1713V15.1709ZM148.521 27.1495C148.517 27.1495 148.514 27.1495 148.51 27.1495V27.1483H148.131C145.629 27.1423 143.696 25.0682 143.696 22.6359C143.696 20.2035 145.578 18.027 148.131 18.0211H148.51V18.0223C148.514 18.0223 148.517 18.0223 148.521 18.0223C151.08 18.0223 152.94 20.1503 152.94 22.6117C152.94 25.073 151.002 27.1499 148.521 27.1499V27.1495Z" fill="white"/>
</g>
<defs>
<clipPath id="clip0_96_6596">
<rect width="169.286" height="30" fill="white"/>
</clipPath>
</defs>
</svg>
