<svg width="180" height="160" viewBox="0 0 180 160" fill="none" xmlns="http://www.w3.org/2000/svg">
<g id="Frame 339">
<g id="Group">
<g id="Graphic Elements">
<g id="Group_2">
<g id="Group_3">
<path id="Vector" d="M86.1797 139.071C86.1797 139.071 36.1404 126.549 36.1404 39.4835C52.8218 38.1266 69.1514 36.2288 86.1797 20.6072C103.208 36.2288 119.538 38.1266 136.219 39.4835C136.219 126.549 86.1797 139.071 86.1797 139.071Z" fill="url(#paint0_linear_110_15702)" fill-opacity="0.2" stroke="url(#paint1_linear_110_15702)" stroke-width="2.86" stroke-linecap="round" stroke-linejoin="round"/>
<path id="Vector_2" d="M113.064 35.9103C115.324 35.0073 117.545 34.1767 119.728 33.4089C142.914 25.2528 161.253 24.7747 166.996 33.829C176.185 48.311 149.641 81.7128 107.711 108.426C65.7806 135.14 24.3374 145.059 15.1486 130.572C8.78829 120.547 19.5527 101.454 40.6863 81.79" stroke="url(#paint2_linear_110_15702)" stroke-width="2.86" stroke-linecap="round" stroke-linejoin="round"/>
<path id="Vector_3" d="M94.0377 103.163L89.5758 69.8863C91.7875 68.6791 93.286 66.3322 93.286 63.628C93.286 59.6007 89.9468 56.3508 85.8897 56.515C82.2277 56.6599 79.2451 59.6393 79.0861 63.3045C78.9608 66.1391 80.4931 68.6308 82.7914 69.8815L78.3296 103.158H94.0425L94.0377 103.163Z" stroke="url(#paint3_linear_110_15702)" stroke-width="2.86" stroke-linecap="round" stroke-linejoin="round"/>
</g>
<g id="Group_4">
<g id="Group_5">
<path id="Vector_4" style="mix-blend-mode:color-dodge" d="M131.484 128.911C131.484 129.901 103.171 130.703 68.2418 130.703C33.3131 130.703 5 129.901 5 128.911C5 127.921 33.3131 127.12 68.2418 127.12C103.171 127.12 131.484 127.921 131.484 128.911Z" fill="url(#paint4_radial_110_15702)"/>
<path id="Vector_5" style="mix-blend-mode:color-dodge" opacity="0.5" d="M68.2392 143.427C78.9742 143.427 87.6767 136.928 87.6767 128.911C87.6767 120.894 78.9742 114.395 68.2392 114.395C57.5041 114.395 48.8016 120.894 48.8016 128.911C48.8016 136.928 57.5041 143.427 68.2392 143.427Z" fill="url(#paint5_radial_110_15702)"/>
<path id="Vector_6" style="mix-blend-mode:color-dodge" opacity="0.8" d="M68.2419 135.338C76.2546 135.338 82.7502 132.46 82.7502 128.91C82.7502 125.361 76.2546 122.483 68.2419 122.483C60.2292 122.483 53.7336 125.361 53.7336 128.91C53.7336 132.46 60.2292 135.338 68.2419 135.338Z" fill="url(#paint6_radial_110_15702)"/>
</g>
<g id="Group_6">
<path id="Vector_7" style="mix-blend-mode:color-dodge" d="M94.2459 102.848C94.9061 103.51 83.7996 115.717 69.4359 130.108C55.0721 144.503 42.896 155.634 42.2359 154.972C41.5757 154.31 52.6822 142.103 67.0459 127.713C81.4097 113.317 93.5858 102.187 94.2459 102.848Z" fill="url(#paint7_radial_110_15702)"/>
<path id="Vector_8" style="mix-blend-mode:color-dodge" opacity="0.5" d="M77.9461 138.641C82.3606 134.217 81.5933 126.275 76.2323 120.903C70.8713 115.53 62.9467 114.761 58.5322 119.185C54.1177 123.609 54.885 131.551 60.246 136.924C65.607 142.297 73.5316 143.066 77.9461 138.641Z" fill="url(#paint8_radial_110_15702)"/>
<path id="Vector_9" style="mix-blend-mode:color-dodge" opacity="0.8" d="M72.5423 133.223C75.8372 129.921 76.5831 125.315 74.2084 122.935C71.8337 120.555 67.2376 121.303 63.9427 124.605C60.6478 127.907 59.9019 132.513 62.2766 134.893C64.6513 137.273 69.2475 136.525 72.5423 133.223Z" fill="url(#paint9_radial_110_15702)"/>
</g>
<g id="Group_7">
<path id="Vector_10" style="mix-blend-mode:color-dodge" d="M146.494 46.8722C146.191 47.7848 129.374 43.0187 108.93 36.2292C88.4852 29.4397 72.1556 23.1959 72.4591 22.288C72.7627 21.3753 89.579 26.1415 110.024 32.931C130.468 39.7205 146.798 45.9643 146.494 46.8722Z" fill="url(#paint10_radial_110_15702)"/>
<path id="Vector_11" style="mix-blend-mode:color-dodge" opacity="0.5" d="M125.692 39.9616C126.767 36.711 120.372 31.6635 111.41 28.6877C102.447 25.7119 94.3101 25.9347 93.2355 29.1853C92.1609 32.4359 98.5555 37.4834 107.518 40.4592C116.481 43.435 124.618 43.2123 125.692 39.9616Z" fill="url(#paint11_radial_110_15702)"/>
<path id="Vector_12" style="mix-blend-mode:color-dodge" opacity="0.8" d="M121.589 38.6005C121.112 40.0395 115.306 39.4069 108.613 37.1856C101.925 34.9643 96.8852 31.9945 97.3622 30.5555C97.8392 29.1164 103.645 29.749 110.338 31.9703C117.026 34.1916 122.066 37.1614 121.589 38.6005Z" fill="url(#paint12_radial_110_15702)"/>
</g>
<g id="Group_8">
<path id="Vector_13" style="mix-blend-mode:color-dodge" d="M129.867 97.4298C157.235 74.578 178.344 54.7574 177.016 53.1592C175.687 51.561 152.424 68.7904 125.056 91.6422C97.6881 114.494 76.5792 134.315 77.9078 135.913C79.2365 137.511 102.5 120.282 129.867 97.4298Z" fill="url(#paint13_radial_110_15702)"/>
<path id="Vector_14" style="mix-blend-mode:color-dodge" opacity="0.6" d="M136.1 104.928C148.326 94.7193 154.369 81.791 149.598 76.0519C144.827 70.3127 131.047 73.936 118.821 84.1447C106.595 94.3534 100.552 107.282 105.323 113.021C110.094 118.76 123.873 115.137 136.1 104.928Z" fill="url(#paint14_radial_110_15702)"/>
<path id="Vector_15" style="mix-blend-mode:color-dodge" opacity="0.7" d="M134.673 103.21C155.754 85.6077 169.615 67.4547 165.633 62.6642C161.65 57.8737 141.332 68.2597 120.251 85.862C99.1701 103.464 85.3091 121.617 89.2917 126.408C93.2743 131.198 113.592 120.812 134.673 103.21Z" fill="url(#paint15_radial_110_15702)"/>
</g>
<g id="Group_9">
<path id="Vector_16" style="mix-blend-mode:color-dodge" d="M129.867 97.4298C157.235 74.578 178.344 54.7574 177.016 53.1592C175.687 51.561 152.424 68.7904 125.056 91.6422C97.6881 114.494 76.5792 134.315 77.9078 135.913C79.2365 137.511 102.5 120.282 129.867 97.4298Z" fill="url(#paint16_radial_110_15702)"/>
<path id="Vector_17" style="mix-blend-mode:color-dodge" opacity="0.6" d="M136.1 104.928C148.326 94.7193 154.369 81.791 149.598 76.0519C144.827 70.3127 131.047 73.936 118.821 84.1447C106.595 94.3534 100.552 107.282 105.323 113.021C110.094 118.76 123.873 115.137 136.1 104.928Z" fill="url(#paint17_radial_110_15702)"/>
<path id="Vector_18" style="mix-blend-mode:color-dodge" opacity="0.7" d="M134.673 103.21C155.754 85.6077 169.615 67.4547 165.633 62.6642C161.65 57.8737 141.332 68.2597 120.251 85.862C99.1701 103.464 85.3091 121.617 89.2917 126.408C93.2743 131.198 113.592 120.812 134.673 103.21Z" fill="url(#paint18_radial_110_15702)"/>
</g>
</g>
<g id="Group_10">
<g id="Group_11">
<path id="Vector_19" style="mix-blend-mode:color-dodge" d="M51.0058 43.4813C59.3432 43.4813 66.1019 36.6105 66.1019 28.135C66.1019 19.6594 59.3432 12.7886 51.0058 12.7886C42.6684 12.7886 35.9097 19.6594 35.9097 28.135C35.9097 36.6105 42.6684 43.4813 51.0058 43.4813Z" fill="url(#paint19_radial_110_15702)"/>
</g>
<g id="Group_12">
<path id="Vector_20" style="mix-blend-mode:color-dodge" d="M20.7953 14.3681C23.3393 14.3681 25.4017 12.271 25.4017 9.68407C25.4017 7.09713 23.3393 5 20.7953 5C18.2512 5 16.1888 7.09713 16.1888 9.68407C16.1888 12.271 18.2512 14.3681 20.7953 14.3681Z" fill="url(#paint20_radial_110_15702)"/>
</g>
<g id="Group_13">
<path id="Vector_21" style="mix-blend-mode:color-dodge" d="M40.2985 42.6699C43.9789 42.6699 46.9624 39.6366 46.9624 35.8949C46.9624 32.1531 43.9789 29.1199 40.2985 29.1199C36.6182 29.1199 33.6346 32.1531 33.6346 35.8949C33.6346 39.6366 36.6182 42.6699 40.2985 42.6699Z" fill="url(#paint21_radial_110_15702)"/>
</g>
<g id="Group_14">
<path id="Vector_22" style="mix-blend-mode:color-dodge" d="M45.2294 16.1201C47.6005 16.1201 49.5226 14.1657 49.5226 11.7548C49.5226 9.34384 47.6005 7.3894 45.2294 7.3894C42.8583 7.3894 40.9362 9.34384 40.9362 11.7548C40.9362 14.1657 42.8583 16.1201 45.2294 16.1201Z" fill="url(#paint22_radial_110_15702)"/>
</g>
<g id="Group_15">
<path id="Vector_23" style="mix-blend-mode:color-dodge" d="M41.6132 17.3863C41.6132 19.0522 40.2833 20.4043 38.6402 20.4043C36.9971 20.4043 35.6672 19.0522 35.6672 17.3863C35.6672 15.7203 36.9971 14.3682 38.6402 14.3682C40.2833 14.3682 41.6132 15.7203 41.6132 17.3863Z" fill="url(#paint23_radial_110_15702)"/>
</g>
<g id="Group_16">
<path id="Vector_24" style="mix-blend-mode:color-dodge" d="M22.0151 39.1933C26.1798 39.1933 29.5559 35.7622 29.5559 31.5297C29.5559 27.2973 26.1798 23.8662 22.0151 23.8662C17.8504 23.8662 14.4742 27.2973 14.4742 31.5297C14.4742 35.7622 17.8504 39.1933 22.0151 39.1933Z" fill="url(#paint24_radial_110_15702)"/>
</g>
<g id="Group_17">
<path id="Vector_25" style="mix-blend-mode:color-dodge" d="M37.0756 63.4779C43.803 63.4779 49.2566 57.9346 49.2566 51.0965C49.2566 44.2584 43.803 38.7151 37.0756 38.7151C30.3483 38.7151 24.8947 44.2584 24.8947 51.0965C24.8947 57.9346 30.3483 63.4779 37.0756 63.4779Z" fill="url(#paint25_radial_110_15702)"/>
</g>
</g>
</g>
</g>
</g>
</g>
<defs>
<linearGradient id="paint0_linear_110_15702" x1="36.1404" y1="79.839" x2="136.214" y2="79.839" gradientUnits="userSpaceOnUse">
<stop stop-color="#3990F9" stop-opacity="0.2"/>
<stop offset="0.07" stop-color="#3990F9" stop-opacity="0.28"/>
<stop offset="0.2" stop-color="#3990F9" stop-opacity="0.49"/>
<stop offset="0.4" stop-color="#3990F9" stop-opacity="0.83"/>
<stop offset="0.49" stop-color="#3990F9"/>
<stop offset="0.76" stop-color="#3990F9" stop-opacity="0.99"/>
<stop offset="0.82" stop-color="#3990F9" stop-opacity="0.81"/>
<stop offset="0.87" stop-color="#3990F9" stop-opacity="0.68"/>
<stop offset="0.92" stop-color="#3990F9" stop-opacity="0.58"/>
<stop offset="0.96" stop-color="#3990F9" stop-opacity="0.52"/>
<stop offset="1" stop-color="#3990F9" stop-opacity="0.5"/>
</linearGradient>
<linearGradient id="paint1_linear_110_15702" x1="46.3217" y1="28.2997" x2="126.212" y2="108.016" gradientUnits="userSpaceOnUse">
<stop stop-color="#3990F9" stop-opacity="0.5"/>
<stop offset="0.03" stop-color="#3990F9" stop-opacity="0.58"/>
<stop offset="0.08" stop-color="#3990F9" stop-opacity="0.79"/>
<stop offset="0.14" stop-color="#3990F9"/>
<stop offset="0.42" stop-color="#3990F9"/>
<stop offset="0.5" stop-color="#3990F9" stop-opacity="0.73"/>
<stop offset="0.6" stop-color="#3990F9" stop-opacity="0.42"/>
<stop offset="0.68" stop-color="#3990F9" stop-opacity="0.19"/>
<stop offset="0.74" stop-color="#3990F9" stop-opacity="0.05"/>
<stop offset="0.77" stop-color="#3990F9" stop-opacity="0"/>
<stop offset="0.83" stop-color="#3990F9" stop-opacity="0.29"/>
<stop offset="0.91" stop-color="#3990F9" stop-opacity="0.67"/>
<stop offset="0.97" stop-color="#3990F9" stop-opacity="0.91"/>
<stop offset="0.99" stop-color="#3990F9"/>
</linearGradient>
<linearGradient id="paint2_linear_110_15702" x1="75.8558" y1="57.1602" x2="106.156" y2="112.626" gradientUnits="userSpaceOnUse">
<stop stop-color="#3990F9" stop-opacity="0"/>
<stop offset="0.09" stop-color="#3990F9" stop-opacity="0.05"/>
<stop offset="0.26" stop-color="#3990F9" stop-opacity="0.19"/>
<stop offset="0.5" stop-color="#3990F9" stop-opacity="0.42"/>
<stop offset="0.78" stop-color="#3990F9" stop-opacity="0.73"/>
<stop offset="1" stop-color="#3990F9"/>
</linearGradient>
<linearGradient id="paint3_linear_110_15702" x1="71.3621" y1="67.4477" x2="101.07" y2="97.0906" gradientUnits="userSpaceOnUse">
<stop stop-color="#3990F9" stop-opacity="0.5"/>
<stop offset="0.03" stop-color="#3990F9" stop-opacity="0.58"/>
<stop offset="0.08" stop-color="#3990F9" stop-opacity="0.79"/>
<stop offset="0.14" stop-color="#3990F9"/>
<stop offset="0.42" stop-color="#3990F9"/>
<stop offset="0.99" stop-color="#3990F9"/>
</linearGradient>
<radialGradient id="paint4_radial_110_15702" cx="0" cy="0" r="1" gradientUnits="userSpaceOnUse" gradientTransform="translate(68.2165 132.593) scale(63.219 1.7545)">
<stop stop-color="white"/>
<stop offset="0.08" stop-color="#CDCDCD" stop-opacity="0.8"/>
<stop offset="0.17" stop-color="#9D9D9D" stop-opacity="0.62"/>
<stop offset="0.26" stop-color="#737373" stop-opacity="0.45"/>
<stop offset="0.36" stop-color="#4F4F4F" stop-opacity="0.31"/>
<stop offset="0.46" stop-color="#323232" stop-opacity="0.2"/>
<stop offset="0.57" stop-color="#1C1C1C" stop-opacity="0.11"/>
<stop offset="0.68" stop-color="#0C0C0C" stop-opacity="0.05"/>
<stop offset="0.82" stop-color="#020202" stop-opacity="0.01"/>
<stop offset="1" stop-opacity="0"/>
</radialGradient>
<radialGradient id="paint5_radial_110_15702" cx="0" cy="0" r="1" gradientUnits="userSpaceOnUse" gradientTransform="translate(68.1746 134.41) scale(19.4308 14.4801)">
<stop stop-color="white"/>
<stop offset="0.15" stop-color="#C4C4C4" stop-opacity="0.77"/>
<stop offset="0.32" stop-color="#898989" stop-opacity="0.54"/>
<stop offset="0.48" stop-color="#585858" stop-opacity="0.35"/>
<stop offset="0.64" stop-color="#323232" stop-opacity="0.2"/>
<stop offset="0.78" stop-color="#161616" stop-opacity="0.09"/>
<stop offset="0.9" stop-color="#050505" stop-opacity="0.02"/>
<stop offset="1" stop-opacity="0"/>
</radialGradient>
<radialGradient id="paint6_radial_110_15702" cx="0" cy="0" r="1" gradientUnits="userSpaceOnUse" gradientTransform="translate(68.1774 128.914) scale(14.5073 6.4307)">
<stop stop-color="#F8F8F8" stop-opacity="0.98"/>
<stop offset="0.09" stop-color="#C5C5C5" stop-opacity="0.77"/>
<stop offset="0.17" stop-color="#969696" stop-opacity="0.59"/>
<stop offset="0.26" stop-color="#6D6D6D" stop-opacity="0.43"/>
<stop offset="0.35" stop-color="#4B4B4B" stop-opacity="0.3"/>
<stop offset="0.45" stop-color="#303030" stop-opacity="0.19"/>
<stop offset="0.55" stop-color="#1A1A1A" stop-opacity="0.1"/>
<stop offset="0.66" stop-color="#0B0B0B" stop-opacity="0.05"/>
<stop offset="0.8" stop-color="#020202" stop-opacity="0.01"/>
<stop offset="1" stop-opacity="0"/>
</radialGradient>
<radialGradient id="paint7_radial_110_15702" cx="0" cy="0" r="1" gradientUnits="userSpaceOnUse" gradientTransform="translate(79.2826 140.392) rotate(-45.0625) scale(36.7359 1.66142)">
<stop stop-color="white"/>
<stop offset="0.08" stop-color="#CDCDCD" stop-opacity="0.8"/>
<stop offset="0.17" stop-color="#9D9D9D" stop-opacity="0.62"/>
<stop offset="0.26" stop-color="#737373" stop-opacity="0.45"/>
<stop offset="0.36" stop-color="#4F4F4F" stop-opacity="0.31"/>
<stop offset="0.46" stop-color="#323232" stop-opacity="0.2"/>
<stop offset="0.57" stop-color="#1C1C1C" stop-opacity="0.11"/>
<stop offset="0.68" stop-color="#0C0C0C" stop-opacity="0.05"/>
<stop offset="0.82" stop-color="#020202" stop-opacity="0.01"/>
<stop offset="1" stop-opacity="0"/>
</radialGradient>
<radialGradient id="paint8_radial_110_15702" cx="0" cy="0" r="1" gradientUnits="userSpaceOnUse" gradientTransform="translate(73.3843 133.575) rotate(-45.0625) scale(11.3453 13.7089)">
<stop stop-color="white"/>
<stop offset="0.15" stop-color="#C4C4C4" stop-opacity="0.77"/>
<stop offset="0.32" stop-color="#898989" stop-opacity="0.54"/>
<stop offset="0.48" stop-color="#585858" stop-opacity="0.35"/>
<stop offset="0.64" stop-color="#323232" stop-opacity="0.2"/>
<stop offset="0.78" stop-color="#161616" stop-opacity="0.09"/>
<stop offset="0.9" stop-color="#050505" stop-opacity="0.02"/>
<stop offset="1" stop-opacity="0"/>
</radialGradient>
<radialGradient id="paint9_radial_110_15702" cx="0" cy="0" r="1" gradientUnits="userSpaceOnUse" gradientTransform="translate(68.482 128.652) rotate(-45.0625) scale(8.46962 6.08752)">
<stop stop-color="#F8F8F8" stop-opacity="0.98"/>
<stop offset="0.09" stop-color="#C5C5C5" stop-opacity="0.77"/>
<stop offset="0.17" stop-color="#969696" stop-opacity="0.59"/>
<stop offset="0.26" stop-color="#6D6D6D" stop-opacity="0.43"/>
<stop offset="0.35" stop-color="#4B4B4B" stop-opacity="0.3"/>
<stop offset="0.45" stop-color="#303030" stop-opacity="0.19"/>
<stop offset="0.55" stop-color="#1A1A1A" stop-opacity="0.1"/>
<stop offset="0.66" stop-color="#0B0B0B" stop-opacity="0.05"/>
<stop offset="0.8" stop-color="#020202" stop-opacity="0.01"/>
<stop offset="1" stop-opacity="0"/>
</radialGradient>
<radialGradient id="paint10_radial_110_15702" cx="0" cy="0" r="1" gradientUnits="userSpaceOnUse" gradientTransform="translate(111.355 28.5193) rotate(18.3673) scale(38.9883 1.67625)">
<stop stop-color="white"/>
<stop offset="0.08" stop-color="#CDCDCD" stop-opacity="0.8"/>
<stop offset="0.17" stop-color="#9D9D9D" stop-opacity="0.62"/>
<stop offset="0.26" stop-color="#737373" stop-opacity="0.45"/>
<stop offset="0.36" stop-color="#4F4F4F" stop-opacity="0.31"/>
<stop offset="0.46" stop-color="#323232" stop-opacity="0.2"/>
<stop offset="0.57" stop-color="#1C1C1C" stop-opacity="0.11"/>
<stop offset="0.68" stop-color="#0C0C0C" stop-opacity="0.05"/>
<stop offset="0.82" stop-color="#020202" stop-opacity="0.01"/>
<stop offset="1" stop-opacity="0"/>
</radialGradient>
<radialGradient id="paint11_radial_110_15702" cx="0" cy="0" r="1" gradientUnits="userSpaceOnUse" gradientTransform="translate(111.836 32.1209) rotate(18.3673) scale(17.1342 6.222)">
<stop stop-color="white"/>
<stop offset="0.15" stop-color="#C4C4C4" stop-opacity="0.77"/>
<stop offset="0.32" stop-color="#898989" stop-opacity="0.54"/>
<stop offset="0.48" stop-color="#585858" stop-opacity="0.35"/>
<stop offset="0.64" stop-color="#323232" stop-opacity="0.2"/>
<stop offset="0.78" stop-color="#161616" stop-opacity="0.09"/>
<stop offset="0.9" stop-color="#050505" stop-opacity="0.02"/>
<stop offset="1" stop-opacity="0"/>
</radialGradient>
<radialGradient id="paint12_radial_110_15702" cx="0" cy="0" r="1" gradientUnits="userSpaceOnUse" gradientTransform="translate(110.131 37.4129) rotate(18.3773) scale(12.7928 2.72322)">
<stop stop-color="#F8F8F8" stop-opacity="0.98"/>
<stop offset="0.09" stop-color="#C5C5C5" stop-opacity="0.77"/>
<stop offset="0.17" stop-color="#969696" stop-opacity="0.59"/>
<stop offset="0.26" stop-color="#6D6D6D" stop-opacity="0.43"/>
<stop offset="0.35" stop-color="#4B4B4B" stop-opacity="0.3"/>
<stop offset="0.45" stop-color="#303030" stop-opacity="0.19"/>
<stop offset="0.55" stop-color="#1A1A1A" stop-opacity="0.1"/>
<stop offset="0.66" stop-color="#0B0B0B" stop-opacity="0.05"/>
<stop offset="0.8" stop-color="#020202" stop-opacity="0.01"/>
<stop offset="1" stop-opacity="0"/>
</radialGradient>
<radialGradient id="paint13_radial_110_15702" cx="0" cy="0" r="1" gradientUnits="userSpaceOnUse" gradientTransform="translate(119.657 83.9711) rotate(140.139) scale(64.5089 3.70531)">
<stop stop-color="white"/>
<stop offset="0.16" stop-color="#C0C0C0" stop-opacity="0.75"/>
<stop offset="0.32" stop-color="#868686" stop-opacity="0.53"/>
<stop offset="0.48" stop-color="#565656" stop-opacity="0.34"/>
<stop offset="0.63" stop-color="#303030" stop-opacity="0.19"/>
<stop offset="0.77" stop-color="#161616" stop-opacity="0.09"/>
<stop offset="0.9" stop-color="#050505" stop-opacity="0.02"/>
<stop offset="0.99" stop-opacity="0"/>
</radialGradient>
<radialGradient id="paint14_radial_110_15702" cx="0" cy="0" r="1" gradientUnits="userSpaceOnUse" gradientTransform="translate(137.998 101.428) rotate(140.139) scale(28.7679 13.5778)">
<stop stop-color="#F8F8F8" stop-opacity="0.98"/>
<stop offset="0.09" stop-color="#C5C5C5" stop-opacity="0.77"/>
<stop offset="0.17" stop-color="#969696" stop-opacity="0.59"/>
<stop offset="0.26" stop-color="#6D6D6D" stop-opacity="0.43"/>
<stop offset="0.35" stop-color="#4B4B4B" stop-opacity="0.3"/>
<stop offset="0.44" stop-color="#303030" stop-opacity="0.19"/>
<stop offset="0.55" stop-color="#1A1A1A" stop-opacity="0.1"/>
<stop offset="0.66" stop-color="#0B0B0B" stop-opacity="0.05"/>
<stop offset="0.8" stop-color="#020202" stop-opacity="0.01"/>
<stop offset="1" stop-opacity="0"/>
</radialGradient>
<radialGradient id="paint15_radial_110_15702" cx="0" cy="0" r="1" gradientUnits="userSpaceOnUse" gradientTransform="translate(120.752 84.1187) rotate(140.139) scale(49.6814 11.2053)">
<stop stop-color="#F8F8F8" stop-opacity="0.98"/>
<stop offset="0.09" stop-color="#C5C5C5" stop-opacity="0.77"/>
<stop offset="0.17" stop-color="#969696" stop-opacity="0.59"/>
<stop offset="0.26" stop-color="#6D6D6D" stop-opacity="0.43"/>
<stop offset="0.35" stop-color="#4B4B4B" stop-opacity="0.3"/>
<stop offset="0.44" stop-color="#303030" stop-opacity="0.19"/>
<stop offset="0.55" stop-color="#1A1A1A" stop-opacity="0.1"/>
<stop offset="0.66" stop-color="#0B0B0B" stop-opacity="0.05"/>
<stop offset="0.8" stop-color="#020202" stop-opacity="0.01"/>
<stop offset="1" stop-opacity="0"/>
</radialGradient>
<radialGradient id="paint16_radial_110_15702" cx="0" cy="0" r="1" gradientUnits="userSpaceOnUse" gradientTransform="translate(119.657 83.9711) rotate(140.139) scale(64.5089 3.70531)">
<stop stop-color="white"/>
<stop offset="0.16" stop-color="#C0C0C0" stop-opacity="0.75"/>
<stop offset="0.32" stop-color="#868686" stop-opacity="0.53"/>
<stop offset="0.48" stop-color="#565656" stop-opacity="0.34"/>
<stop offset="0.63" stop-color="#303030" stop-opacity="0.19"/>
<stop offset="0.77" stop-color="#161616" stop-opacity="0.09"/>
<stop offset="0.9" stop-color="#050505" stop-opacity="0.02"/>
<stop offset="0.99" stop-opacity="0"/>
</radialGradient>
<radialGradient id="paint17_radial_110_15702" cx="0" cy="0" r="1" gradientUnits="userSpaceOnUse" gradientTransform="translate(137.998 101.428) rotate(140.139) scale(28.7679 13.5778)">
<stop stop-color="#F8F8F8" stop-opacity="0.98"/>
<stop offset="0.09" stop-color="#C5C5C5" stop-opacity="0.77"/>
<stop offset="0.17" stop-color="#969696" stop-opacity="0.59"/>
<stop offset="0.26" stop-color="#6D6D6D" stop-opacity="0.43"/>
<stop offset="0.35" stop-color="#4B4B4B" stop-opacity="0.3"/>
<stop offset="0.44" stop-color="#303030" stop-opacity="0.19"/>
<stop offset="0.55" stop-color="#1A1A1A" stop-opacity="0.1"/>
<stop offset="0.66" stop-color="#0B0B0B" stop-opacity="0.05"/>
<stop offset="0.8" stop-color="#020202" stop-opacity="0.01"/>
<stop offset="1" stop-opacity="0"/>
</radialGradient>
<radialGradient id="paint18_radial_110_15702" cx="0" cy="0" r="1" gradientUnits="userSpaceOnUse" gradientTransform="translate(120.752 84.1187) rotate(140.139) scale(49.6814 11.2053)">
<stop stop-color="#F8F8F8" stop-opacity="0.98"/>
<stop offset="0.09" stop-color="#C5C5C5" stop-opacity="0.77"/>
<stop offset="0.17" stop-color="#969696" stop-opacity="0.59"/>
<stop offset="0.26" stop-color="#6D6D6D" stop-opacity="0.43"/>
<stop offset="0.35" stop-color="#4B4B4B" stop-opacity="0.3"/>
<stop offset="0.44" stop-color="#303030" stop-opacity="0.19"/>
<stop offset="0.55" stop-color="#1A1A1A" stop-opacity="0.1"/>
<stop offset="0.66" stop-color="#0B0B0B" stop-opacity="0.05"/>
<stop offset="0.8" stop-color="#020202" stop-opacity="0.01"/>
<stop offset="1" stop-opacity="0"/>
</radialGradient>
<radialGradient id="paint19_radial_110_15702" cx="0" cy="0" r="1" gradientUnits="userSpaceOnUse" gradientTransform="translate(51.1836 33.8725) scale(15.1441 15.3091)">
<stop stop-color="white"/>
<stop offset="0.15" stop-color="#C4C4C4" stop-opacity="0.77"/>
<stop offset="0.32" stop-color="#898989" stop-opacity="0.54"/>
<stop offset="0.48" stop-color="#585858" stop-opacity="0.35"/>
<stop offset="0.64" stop-color="#323232" stop-opacity="0.2"/>
<stop offset="0.78" stop-color="#161616" stop-opacity="0.09"/>
<stop offset="0.9" stop-color="#050505" stop-opacity="0.02"/>
<stop offset="1" stop-opacity="0"/>
</radialGradient>
<radialGradient id="paint20_radial_110_15702" cx="0" cy="0" r="1" gradientUnits="userSpaceOnUse" gradientTransform="translate(20.8798 15.4662) scale(4.62135 4.67171)">
<stop stop-color="white"/>
<stop offset="0.15" stop-color="#C4C4C4" stop-opacity="0.77"/>
<stop offset="0.32" stop-color="#898989" stop-opacity="0.54"/>
<stop offset="0.48" stop-color="#585858" stop-opacity="0.35"/>
<stop offset="0.64" stop-color="#323232" stop-opacity="0.2"/>
<stop offset="0.78" stop-color="#161616" stop-opacity="0.09"/>
<stop offset="0.9" stop-color="#050505" stop-opacity="0.02"/>
<stop offset="1" stop-opacity="0"/>
</radialGradient>
<radialGradient id="paint21_radial_110_15702" cx="0" cy="0" r="1" gradientUnits="userSpaceOnUse" gradientTransform="translate(40.444 41.6137) scale(6.68267 6.7555)">
<stop stop-color="white"/>
<stop offset="0.15" stop-color="#C4C4C4" stop-opacity="0.77"/>
<stop offset="0.32" stop-color="#898989" stop-opacity="0.54"/>
<stop offset="0.48" stop-color="#585858" stop-opacity="0.35"/>
<stop offset="0.64" stop-color="#323232" stop-opacity="0.2"/>
<stop offset="0.78" stop-color="#161616" stop-opacity="0.09"/>
<stop offset="0.9" stop-color="#050505" stop-opacity="0.02"/>
<stop offset="1" stop-opacity="0"/>
</radialGradient>
<radialGradient id="paint22_radial_110_15702" cx="0" cy="0" r="1" gradientUnits="userSpaceOnUse" gradientTransform="translate(45.3884 17.5379) scale(4.3055 4.35242)">
<stop stop-color="white"/>
<stop offset="0.15" stop-color="#C4C4C4" stop-opacity="0.77"/>
<stop offset="0.32" stop-color="#898989" stop-opacity="0.54"/>
<stop offset="0.48" stop-color="#585858" stop-opacity="0.35"/>
<stop offset="0.64" stop-color="#323232" stop-opacity="0.2"/>
<stop offset="0.78" stop-color="#161616" stop-opacity="0.09"/>
<stop offset="0.9" stop-color="#050505" stop-opacity="0.02"/>
<stop offset="1" stop-opacity="0"/>
</radialGradient>
<radialGradient id="paint23_radial_110_15702" cx="0" cy="0" r="1" gradientUnits="userSpaceOnUse" gradientTransform="translate(38.7809 23.1516) scale(2.98116 3.01365)">
<stop stop-color="white"/>
<stop offset="0.15" stop-color="#C4C4C4" stop-opacity="0.77"/>
<stop offset="0.32" stop-color="#898989" stop-opacity="0.54"/>
<stop offset="0.48" stop-color="#585858" stop-opacity="0.35"/>
<stop offset="0.64" stop-color="#323232" stop-opacity="0.2"/>
<stop offset="0.78" stop-color="#161616" stop-opacity="0.09"/>
<stop offset="0.9" stop-color="#050505" stop-opacity="0.02"/>
<stop offset="1" stop-opacity="0"/>
</radialGradient>
<radialGradient id="paint24_radial_110_15702" cx="0" cy="0" r="1" gradientUnits="userSpaceOnUse" gradientTransform="translate(22.1052 37.2615) scale(7.56372 7.64615)">
<stop stop-color="white"/>
<stop offset="0.15" stop-color="#C4C4C4" stop-opacity="0.77"/>
<stop offset="0.32" stop-color="#898989" stop-opacity="0.54"/>
<stop offset="0.48" stop-color="#585858" stop-opacity="0.35"/>
<stop offset="0.64" stop-color="#323232" stop-opacity="0.2"/>
<stop offset="0.78" stop-color="#161616" stop-opacity="0.09"/>
<stop offset="0.9" stop-color="#050505" stop-opacity="0.02"/>
<stop offset="1" stop-opacity="0"/>
</radialGradient>
<radialGradient id="paint25_radial_110_15702" cx="0" cy="0" r="1" gradientUnits="userSpaceOnUse" gradientTransform="translate(37.2093 56.7829) scale(12.2183 12.3515)">
<stop stop-color="white"/>
<stop offset="0.15" stop-color="#C4C4C4" stop-opacity="0.77"/>
<stop offset="0.32" stop-color="#898989" stop-opacity="0.54"/>
<stop offset="0.48" stop-color="#585858" stop-opacity="0.35"/>
<stop offset="0.64" stop-color="#323232" stop-opacity="0.2"/>
<stop offset="0.78" stop-color="#161616" stop-opacity="0.09"/>
<stop offset="0.9" stop-color="#050505" stop-opacity="0.02"/>
<stop offset="1" stop-opacity="0"/>
</radialGradient>
</defs>
</svg>
