<svg width="29" height="21" viewBox="0 0 29 21" fill="none" xmlns="http://www.w3.org/2000/svg">
<path d="M28.3966 3.1884C28.0645 1.93186 27.0792 0.941019 25.8337 0.608895C23.5698 -3.29936e-07 14.5028 0 14.5028 0C14.5028 0 5.43023 -3.29936e-07 3.17179 0.608895C1.92632 0.946554 0.941018 1.93186 0.608894 3.1884C-8.57834e-07 5.46345 0 10.2184 0 10.2184C0 10.2184 -8.57834e-07 14.9677 0.608894 17.2483C0.941018 18.5049 1.92632 19.4957 3.17179 19.8278C5.43577 20.4367 14.5028 20.4367 14.5028 20.4367C14.5028 20.4367 23.5753 20.4367 25.8337 19.8278C27.0792 19.4902 28.0645 18.5049 28.3966 17.2483C29 14.9733 29 10.2184 29 10.2184C29 10.2184 29 5.46898 28.3966 3.1884Z" fill="black"/>
<path d="M12.5368 14.0021V5.37793L20.1148 9.69001L12.5368 14.0021Z" fill="#414141"/>
</svg>
